<?xml version="1.0" standalone="no"?><svg xmlns="http://www.w3.org/2000/svg" viewBox="0 0 1440 320"><path fill="#0F3D3E" fill-opacity="1" d="M0,64L24,101.3C48,139,96,213,144,234.7C192,256,240,224,288,186.7C336,149,384,107,432,112C480,117,528,171,576,165.3C624,160,672,96,720,64C768,32,816,32,864,64C912,96,960,160,1008,165.3C1056,171,1104,117,1152,122.7C1200,128,1248,192,1296,202.7C1344,213,1392,171,1416,149.3L1440,128L1440,320L1416,320C1392,320,1344,320,1296,320C1248,320,1200,320,1152,320C1104,320,1056,320,1008,320C960,320,912,320,864,320C816,320,768,320,720,320C672,320,624,320,576,320C528,320,480,320,432,320C384,320,336,320,288,320C240,320,192,320,144,320C96,320,48,320,24,320L0,320Z"></path></svg>